<mxfile host="app.diagrams.net" agent="Mozilla/5.0 (Windows NT 10.0; Win64; x64) AppleWebKit/537.36 (KHTML, like Gecko) Chrome/122.0.0.0 Safari/537.36" version="24.7.8">
  <diagram name="Page-1" id="Ur16S9If8f2m2Uzb5QUr">
    <mxGraphModel grid="1" page="1" gridSize="10" guides="1" tooltips="1" connect="1" arrows="1" fold="1" pageScale="1" pageWidth="850" pageHeight="1100" math="0" shadow="0">
      <root>
        <mxCell id="0" />
        <mxCell id="1" parent="0" />
        <mxCell id="qZeAaRJFSxvFil0ufE4n-19" style="edgeStyle=orthogonalEdgeStyle;rounded=0;orthogonalLoop=1;jettySize=auto;html=1;exitX=0.5;exitY=1;exitDx=0;exitDy=0;entryX=0.5;entryY=0;entryDx=0;entryDy=0;" edge="1" parent="1" source="qZeAaRJFSxvFil0ufE4n-7" target="qZeAaRJFSxvFil0ufE4n-8">
          <mxGeometry relative="1" as="geometry" />
        </mxCell>
        <mxCell id="qZeAaRJFSxvFil0ufE4n-7" value="" style="ellipse;whiteSpace=wrap;html=1;aspect=fixed;" vertex="1" parent="1">
          <mxGeometry x="1225" y="135" width="80" height="80" as="geometry" />
        </mxCell>
        <mxCell id="qZeAaRJFSxvFil0ufE4n-21" style="edgeStyle=orthogonalEdgeStyle;rounded=0;orthogonalLoop=1;jettySize=auto;html=1;exitX=0.5;exitY=1;exitDx=0;exitDy=0;entryX=0.5;entryY=0;entryDx=0;entryDy=0;" edge="1" parent="1" source="qZeAaRJFSxvFil0ufE4n-8" target="qZeAaRJFSxvFil0ufE4n-11">
          <mxGeometry relative="1" as="geometry" />
        </mxCell>
        <mxCell id="qZeAaRJFSxvFil0ufE4n-8" value="Draw Game Scene" style="ellipse;whiteSpace=wrap;html=1;" vertex="1" parent="1">
          <mxGeometry x="1205" y="265" width="120" height="80" as="geometry" />
        </mxCell>
        <mxCell id="qZeAaRJFSxvFil0ufE4n-22" style="edgeStyle=orthogonalEdgeStyle;rounded=0;orthogonalLoop=1;jettySize=auto;html=1;exitX=0.5;exitY=1;exitDx=0;exitDy=0;entryX=0.5;entryY=0;entryDx=0;entryDy=0;" edge="1" parent="1" source="qZeAaRJFSxvFil0ufE4n-11" target="qZeAaRJFSxvFil0ufE4n-13">
          <mxGeometry relative="1" as="geometry" />
        </mxCell>
        <mxCell id="qZeAaRJFSxvFil0ufE4n-11" value="Loop over all entities" style="rounded=1;whiteSpace=wrap;html=1;" vertex="1" parent="1">
          <mxGeometry x="1205" y="380" width="120" height="60" as="geometry" />
        </mxCell>
        <mxCell id="qZeAaRJFSxvFil0ufE4n-23" value="Yes" style="edgeStyle=orthogonalEdgeStyle;rounded=0;orthogonalLoop=1;jettySize=auto;html=1;exitX=0;exitY=0.5;exitDx=0;exitDy=0;" edge="1" parent="1" source="qZeAaRJFSxvFil0ufE4n-13" target="qZeAaRJFSxvFil0ufE4n-14">
          <mxGeometry relative="1" as="geometry" />
        </mxCell>
        <mxCell id="qZeAaRJFSxvFil0ufE4n-24" value="No" style="edgeStyle=orthogonalEdgeStyle;rounded=0;orthogonalLoop=1;jettySize=auto;html=1;exitX=1;exitY=0.5;exitDx=0;exitDy=0;" edge="1" parent="1" source="qZeAaRJFSxvFil0ufE4n-13" target="qZeAaRJFSxvFil0ufE4n-16">
          <mxGeometry relative="1" as="geometry" />
        </mxCell>
        <mxCell id="qZeAaRJFSxvFil0ufE4n-13" value="Is it your turn?" style="rhombus;whiteSpace=wrap;html=1;" vertex="1" parent="1">
          <mxGeometry x="1220" y="475" width="90" height="90" as="geometry" />
        </mxCell>
        <mxCell id="qZeAaRJFSxvFil0ufE4n-27" style="edgeStyle=orthogonalEdgeStyle;rounded=0;orthogonalLoop=1;jettySize=auto;html=1;exitX=0.5;exitY=1;exitDx=0;exitDy=0;" edge="1" parent="1" source="qZeAaRJFSxvFil0ufE4n-14" target="qZeAaRJFSxvFil0ufE4n-17">
          <mxGeometry relative="1" as="geometry" />
        </mxCell>
        <mxCell id="qZeAaRJFSxvFil0ufE4n-14" value="Roll Dice" style="rounded=1;whiteSpace=wrap;html=1;" vertex="1" parent="1">
          <mxGeometry x="1005" y="490" width="120" height="60" as="geometry" />
        </mxCell>
        <mxCell id="qZeAaRJFSxvFil0ufE4n-33" style="edgeStyle=orthogonalEdgeStyle;rounded=0;orthogonalLoop=1;jettySize=auto;html=1;exitX=0.5;exitY=1;exitDx=0;exitDy=0;entryX=1;entryY=0.5;entryDx=0;entryDy=0;" edge="1" parent="1" source="qZeAaRJFSxvFil0ufE4n-16" target="qZeAaRJFSxvFil0ufE4n-30">
          <mxGeometry relative="1" as="geometry" />
        </mxCell>
        <mxCell id="qZeAaRJFSxvFil0ufE4n-16" value="watch active player moves" style="rounded=1;whiteSpace=wrap;html=1;" vertex="1" parent="1">
          <mxGeometry x="1425" y="490" width="120" height="60" as="geometry" />
        </mxCell>
        <mxCell id="qZeAaRJFSxvFil0ufE4n-31" style="edgeStyle=orthogonalEdgeStyle;rounded=0;orthogonalLoop=1;jettySize=auto;html=1;exitX=0.5;exitY=1;exitDx=0;exitDy=0;" edge="1" parent="1" source="qZeAaRJFSxvFil0ufE4n-17" target="qZeAaRJFSxvFil0ufE4n-28">
          <mxGeometry relative="1" as="geometry" />
        </mxCell>
        <mxCell id="qZeAaRJFSxvFil0ufE4n-17" value="Move spaces on dice" style="rounded=1;whiteSpace=wrap;html=1;" vertex="1" parent="1">
          <mxGeometry x="1005" y="575" width="120" height="60" as="geometry" />
        </mxCell>
        <mxCell id="qZeAaRJFSxvFil0ufE4n-37" style="edgeStyle=orthogonalEdgeStyle;rounded=0;orthogonalLoop=1;jettySize=auto;html=1;exitX=1;exitY=0.5;exitDx=0;exitDy=0;" edge="1" parent="1" source="qZeAaRJFSxvFil0ufE4n-28">
          <mxGeometry relative="1" as="geometry">
            <mxPoint x="1225" y="695" as="targetPoint" />
          </mxGeometry>
        </mxCell>
        <mxCell id="qZeAaRJFSxvFil0ufE4n-28" value="Do end apace action" style="rounded=1;whiteSpace=wrap;html=1;" vertex="1" parent="1">
          <mxGeometry x="1005" y="665" width="120" height="60" as="geometry" />
        </mxCell>
        <mxCell id="qZeAaRJFSxvFil0ufE4n-36" style="edgeStyle=orthogonalEdgeStyle;rounded=0;orthogonalLoop=1;jettySize=auto;html=1;exitX=0.5;exitY=1;exitDx=0;exitDy=0;entryX=0.5;entryY=0;entryDx=0;entryDy=0;" edge="1" parent="1" source="qZeAaRJFSxvFil0ufE4n-30" target="qZeAaRJFSxvFil0ufE4n-34">
          <mxGeometry relative="1" as="geometry" />
        </mxCell>
        <mxCell id="qZeAaRJFSxvFil0ufE4n-30" value="All actions complete" style="rhombus;whiteSpace=wrap;html=1;" vertex="1" parent="1">
          <mxGeometry x="1225" y="655" width="80" height="80" as="geometry" />
        </mxCell>
        <mxCell id="qZeAaRJFSxvFil0ufE4n-34" value="" style="ellipse;whiteSpace=wrap;html=1;aspect=fixed;" vertex="1" parent="1">
          <mxGeometry x="1225" y="765" width="80" height="80" as="geometry" />
        </mxCell>
        <mxCell id="qZeAaRJFSxvFil0ufE4n-126" style="edgeStyle=orthogonalEdgeStyle;rounded=0;orthogonalLoop=1;jettySize=auto;html=1;exitX=0.5;exitY=1;exitDx=0;exitDy=0;entryX=0.5;entryY=0;entryDx=0;entryDy=0;" edge="1" parent="1" source="qZeAaRJFSxvFil0ufE4n-38" target="qZeAaRJFSxvFil0ufE4n-39">
          <mxGeometry relative="1" as="geometry" />
        </mxCell>
        <mxCell id="qZeAaRJFSxvFil0ufE4n-38" value="" style="ellipse;whiteSpace=wrap;html=1;aspect=fixed;" vertex="1" parent="1">
          <mxGeometry x="2090" y="50" width="80" height="80" as="geometry" />
        </mxCell>
        <mxCell id="qZeAaRJFSxvFil0ufE4n-125" style="edgeStyle=orthogonalEdgeStyle;rounded=0;orthogonalLoop=1;jettySize=auto;html=1;exitX=0.5;exitY=1;exitDx=0;exitDy=0;entryX=0.5;entryY=0;entryDx=0;entryDy=0;" edge="1" parent="1" source="qZeAaRJFSxvFil0ufE4n-39" target="qZeAaRJFSxvFil0ufE4n-40">
          <mxGeometry relative="1" as="geometry" />
        </mxCell>
        <mxCell id="qZeAaRJFSxvFil0ufE4n-39" value="Draw game scene" style="ellipse;whiteSpace=wrap;html=1;" vertex="1" parent="1">
          <mxGeometry x="2070" y="170" width="120" height="80" as="geometry" />
        </mxCell>
        <mxCell id="qZeAaRJFSxvFil0ufE4n-124" style="edgeStyle=orthogonalEdgeStyle;rounded=0;orthogonalLoop=1;jettySize=auto;html=1;exitX=0.5;exitY=1;exitDx=0;exitDy=0;entryX=0.5;entryY=0;entryDx=0;entryDy=0;" edge="1" parent="1" source="qZeAaRJFSxvFil0ufE4n-40" target="qZeAaRJFSxvFil0ufE4n-41">
          <mxGeometry relative="1" as="geometry" />
        </mxCell>
        <mxCell id="qZeAaRJFSxvFil0ufE4n-40" value="Loop over active character" style="rounded=1;whiteSpace=wrap;html=1;" vertex="1" parent="1">
          <mxGeometry x="2070" y="295" width="120" height="60" as="geometry" />
        </mxCell>
        <mxCell id="qZeAaRJFSxvFil0ufE4n-59" value="Yes" style="edgeStyle=orthogonalEdgeStyle;rounded=0;orthogonalLoop=1;jettySize=auto;html=1;exitX=0;exitY=0.5;exitDx=0;exitDy=0;" edge="1" parent="1" source="qZeAaRJFSxvFil0ufE4n-41" target="qZeAaRJFSxvFil0ufE4n-45">
          <mxGeometry relative="1" as="geometry" />
        </mxCell>
        <mxCell id="qZeAaRJFSxvFil0ufE4n-64" value="No" style="edgeStyle=orthogonalEdgeStyle;rounded=0;orthogonalLoop=1;jettySize=auto;html=1;exitX=1;exitY=0.5;exitDx=0;exitDy=0;entryX=0;entryY=0.5;entryDx=0;entryDy=0;" edge="1" parent="1" source="qZeAaRJFSxvFil0ufE4n-41" target="qZeAaRJFSxvFil0ufE4n-54">
          <mxGeometry relative="1" as="geometry" />
        </mxCell>
        <mxCell id="qZeAaRJFSxvFil0ufE4n-41" value="Did you land on a number space" style="rhombus;whiteSpace=wrap;html=1;" vertex="1" parent="1">
          <mxGeometry x="2070" y="400" width="120" height="100" as="geometry" />
        </mxCell>
        <mxCell id="qZeAaRJFSxvFil0ufE4n-60" value="Yes" style="edgeStyle=orthogonalEdgeStyle;rounded=0;orthogonalLoop=1;jettySize=auto;html=1;exitX=0;exitY=0.5;exitDx=0;exitDy=0;entryX=1;entryY=0.5;entryDx=0;entryDy=0;" edge="1" parent="1" source="qZeAaRJFSxvFil0ufE4n-45" target="qZeAaRJFSxvFil0ufE4n-46">
          <mxGeometry relative="1" as="geometry" />
        </mxCell>
        <mxCell id="qZeAaRJFSxvFil0ufE4n-62" value="No" style="edgeStyle=orthogonalEdgeStyle;rounded=0;orthogonalLoop=1;jettySize=auto;html=1;exitX=0.5;exitY=1;exitDx=0;exitDy=0;entryX=0.5;entryY=0;entryDx=0;entryDy=0;" edge="1" parent="1" source="qZeAaRJFSxvFil0ufE4n-45" target="qZeAaRJFSxvFil0ufE4n-47">
          <mxGeometry relative="1" as="geometry" />
        </mxCell>
        <mxCell id="qZeAaRJFSxvFil0ufE4n-45" value="Did you land on positive" style="rhombus;whiteSpace=wrap;html=1;" vertex="1" parent="1">
          <mxGeometry x="1915" y="400" width="110" height="100" as="geometry" />
        </mxCell>
        <mxCell id="qZeAaRJFSxvFil0ufE4n-61" style="edgeStyle=orthogonalEdgeStyle;rounded=0;orthogonalLoop=1;jettySize=auto;html=1;exitX=0.5;exitY=1;exitDx=0;exitDy=0;entryX=0.5;entryY=0;entryDx=0;entryDy=0;" edge="1" parent="1" source="qZeAaRJFSxvFil0ufE4n-46" target="qZeAaRJFSxvFil0ufE4n-49">
          <mxGeometry relative="1" as="geometry" />
        </mxCell>
        <mxCell id="qZeAaRJFSxvFil0ufE4n-46" value="Add Number to your point total" style="rounded=1;whiteSpace=wrap;html=1;" vertex="1" parent="1">
          <mxGeometry x="1760" y="420" width="120" height="60" as="geometry" />
        </mxCell>
        <mxCell id="qZeAaRJFSxvFil0ufE4n-133" style="edgeStyle=orthogonalEdgeStyle;rounded=0;orthogonalLoop=1;jettySize=auto;html=1;exitX=0;exitY=0.5;exitDx=0;exitDy=0;entryX=1;entryY=0.5;entryDx=0;entryDy=0;" edge="1" parent="1" source="qZeAaRJFSxvFil0ufE4n-47" target="qZeAaRJFSxvFil0ufE4n-49">
          <mxGeometry relative="1" as="geometry" />
        </mxCell>
        <mxCell id="qZeAaRJFSxvFil0ufE4n-47" value="Subtract number from your point total" style="rounded=1;whiteSpace=wrap;html=1;" vertex="1" parent="1">
          <mxGeometry x="1910" y="560" width="120" height="60" as="geometry" />
        </mxCell>
        <mxCell id="qZeAaRJFSxvFil0ufE4n-132" style="edgeStyle=orthogonalEdgeStyle;rounded=0;orthogonalLoop=1;jettySize=auto;html=1;exitX=0.5;exitY=1;exitDx=0;exitDy=0;entryX=0;entryY=0.5;entryDx=0;entryDy=0;" edge="1" parent="1" source="qZeAaRJFSxvFil0ufE4n-49" target="qZeAaRJFSxvFil0ufE4n-58">
          <mxGeometry relative="1" as="geometry" />
        </mxCell>
        <mxCell id="qZeAaRJFSxvFil0ufE4n-49" value="return points" style="rhombus;whiteSpace=wrap;html=1;" vertex="1" parent="1">
          <mxGeometry x="1780" y="550" width="80" height="80" as="geometry" />
        </mxCell>
        <mxCell id="qZeAaRJFSxvFil0ufE4n-129" value="Yes" style="edgeStyle=orthogonalEdgeStyle;rounded=0;orthogonalLoop=1;jettySize=auto;html=1;exitX=0.5;exitY=1;exitDx=0;exitDy=0;entryX=0.5;entryY=0;entryDx=0;entryDy=0;" edge="1" parent="1" source="qZeAaRJFSxvFil0ufE4n-50" target="qZeAaRJFSxvFil0ufE4n-51">
          <mxGeometry relative="1" as="geometry" />
        </mxCell>
        <mxCell id="qZeAaRJFSxvFil0ufE4n-137" value="no" style="edgeStyle=orthogonalEdgeStyle;rounded=0;orthogonalLoop=1;jettySize=auto;html=1;exitX=1;exitY=0.5;exitDx=0;exitDy=0;entryX=0;entryY=0.5;entryDx=0;entryDy=0;" edge="1" parent="1" source="qZeAaRJFSxvFil0ufE4n-50" target="qZeAaRJFSxvFil0ufE4n-136">
          <mxGeometry relative="1" as="geometry" />
        </mxCell>
        <mxCell id="qZeAaRJFSxvFil0ufE4n-50" value="Did you Land on S" style="rhombus;whiteSpace=wrap;html=1;" vertex="1" parent="1">
          <mxGeometry x="2500" y="405" width="100" height="90" as="geometry" />
        </mxCell>
        <mxCell id="qZeAaRJFSxvFil0ufE4n-69" style="edgeStyle=orthogonalEdgeStyle;rounded=0;orthogonalLoop=1;jettySize=auto;html=1;exitX=0.5;exitY=1;exitDx=0;exitDy=0;entryX=1;entryY=0.5;entryDx=0;entryDy=0;" edge="1" parent="1" source="qZeAaRJFSxvFil0ufE4n-51" target="qZeAaRJFSxvFil0ufE4n-67">
          <mxGeometry relative="1" as="geometry" />
        </mxCell>
        <mxCell id="qZeAaRJFSxvFil0ufE4n-51" value="Become Immune" style="rounded=1;whiteSpace=wrap;html=1;" vertex="1" parent="1">
          <mxGeometry x="2490" y="530" width="120" height="60" as="geometry" />
        </mxCell>
        <mxCell id="qZeAaRJFSxvFil0ufE4n-66" value="No" style="edgeStyle=orthogonalEdgeStyle;rounded=0;orthogonalLoop=1;jettySize=auto;html=1;exitX=1;exitY=0.5;exitDx=0;exitDy=0;entryX=0;entryY=0.5;entryDx=0;entryDy=0;" edge="1" parent="1" source="qZeAaRJFSxvFil0ufE4n-53" target="qZeAaRJFSxvFil0ufE4n-50">
          <mxGeometry relative="1" as="geometry" />
        </mxCell>
        <mxCell id="qZeAaRJFSxvFil0ufE4n-128" value="Yes" style="edgeStyle=orthogonalEdgeStyle;rounded=0;orthogonalLoop=1;jettySize=auto;html=1;exitX=0.5;exitY=1;exitDx=0;exitDy=0;entryX=0.5;entryY=0;entryDx=0;entryDy=0;" edge="1" parent="1" source="qZeAaRJFSxvFil0ufE4n-53" target="qZeAaRJFSxvFil0ufE4n-55">
          <mxGeometry relative="1" as="geometry" />
        </mxCell>
        <mxCell id="qZeAaRJFSxvFil0ufE4n-53" value="Did you Land on N" style="rhombus;whiteSpace=wrap;html=1;" vertex="1" parent="1">
          <mxGeometry x="2360" y="405" width="100" height="90" as="geometry" />
        </mxCell>
        <mxCell id="qZeAaRJFSxvFil0ufE4n-65" value="No" style="edgeStyle=orthogonalEdgeStyle;rounded=0;orthogonalLoop=1;jettySize=auto;html=1;exitX=1;exitY=0.5;exitDx=0;exitDy=0;entryX=0;entryY=0.5;entryDx=0;entryDy=0;" edge="1" parent="1" source="qZeAaRJFSxvFil0ufE4n-54" target="qZeAaRJFSxvFil0ufE4n-53">
          <mxGeometry relative="1" as="geometry" />
        </mxCell>
        <mxCell id="qZeAaRJFSxvFil0ufE4n-127" value="Yes" style="edgeStyle=orthogonalEdgeStyle;rounded=0;orthogonalLoop=1;jettySize=auto;html=1;exitX=0.5;exitY=1;exitDx=0;exitDy=0;" edge="1" parent="1" source="qZeAaRJFSxvFil0ufE4n-54" target="qZeAaRJFSxvFil0ufE4n-56">
          <mxGeometry relative="1" as="geometry" />
        </mxCell>
        <mxCell id="qZeAaRJFSxvFil0ufE4n-54" value="Did you Land on Z" style="rhombus;whiteSpace=wrap;html=1;" vertex="1" parent="1">
          <mxGeometry x="2220" y="405" width="100" height="90" as="geometry" />
        </mxCell>
        <mxCell id="qZeAaRJFSxvFil0ufE4n-68" style="edgeStyle=orthogonalEdgeStyle;rounded=0;orthogonalLoop=1;jettySize=auto;html=1;exitX=0.5;exitY=1;exitDx=0;exitDy=0;entryX=0.5;entryY=0;entryDx=0;entryDy=0;" edge="1" parent="1" source="qZeAaRJFSxvFil0ufE4n-55" target="qZeAaRJFSxvFil0ufE4n-67">
          <mxGeometry relative="1" as="geometry" />
        </mxCell>
        <mxCell id="qZeAaRJFSxvFil0ufE4n-55" value="Set all points to 0" style="rounded=1;whiteSpace=wrap;html=1;" vertex="1" parent="1">
          <mxGeometry x="2350" y="530" width="120" height="60" as="geometry" />
        </mxCell>
        <mxCell id="qZeAaRJFSxvFil0ufE4n-70" style="edgeStyle=orthogonalEdgeStyle;rounded=0;orthogonalLoop=1;jettySize=auto;html=1;exitX=0.5;exitY=1;exitDx=0;exitDy=0;entryX=0;entryY=0.5;entryDx=0;entryDy=0;" edge="1" parent="1" source="qZeAaRJFSxvFil0ufE4n-56" target="qZeAaRJFSxvFil0ufE4n-67">
          <mxGeometry relative="1" as="geometry" />
        </mxCell>
        <mxCell id="qZeAaRJFSxvFil0ufE4n-56" value="Move Everyone back the number of space on rolled dice" style="rounded=1;whiteSpace=wrap;html=1;" vertex="1" parent="1">
          <mxGeometry x="2210" y="530" width="120" height="60" as="geometry" />
        </mxCell>
        <mxCell id="qZeAaRJFSxvFil0ufE4n-134" style="edgeStyle=orthogonalEdgeStyle;rounded=0;orthogonalLoop=1;jettySize=auto;html=1;exitX=0.5;exitY=1;exitDx=0;exitDy=0;entryX=0.5;entryY=0;entryDx=0;entryDy=0;" edge="1" parent="1" source="qZeAaRJFSxvFil0ufE4n-58" target="qZeAaRJFSxvFil0ufE4n-131">
          <mxGeometry relative="1" as="geometry" />
        </mxCell>
        <mxCell id="qZeAaRJFSxvFil0ufE4n-58" value="Adjust Game state" style="rhombus;whiteSpace=wrap;html=1;" vertex="1" parent="1">
          <mxGeometry x="2100" y="735" width="80" height="80" as="geometry" />
        </mxCell>
        <mxCell id="qZeAaRJFSxvFil0ufE4n-130" style="edgeStyle=orthogonalEdgeStyle;rounded=0;orthogonalLoop=1;jettySize=auto;html=1;exitX=0.5;exitY=1;exitDx=0;exitDy=0;entryX=1;entryY=0.5;entryDx=0;entryDy=0;" edge="1" parent="1" source="qZeAaRJFSxvFil0ufE4n-67" target="qZeAaRJFSxvFil0ufE4n-58">
          <mxGeometry relative="1" as="geometry" />
        </mxCell>
        <mxCell id="qZeAaRJFSxvFil0ufE4n-67" value="Set active action" style="rhombus;whiteSpace=wrap;html=1;" vertex="1" parent="1">
          <mxGeometry x="2370" y="650" width="80" height="80" as="geometry" />
        </mxCell>
        <mxCell id="qZeAaRJFSxvFil0ufE4n-122" style="edgeStyle=orthogonalEdgeStyle;rounded=0;orthogonalLoop=1;jettySize=auto;html=1;exitX=0.5;exitY=1;exitDx=0;exitDy=0;entryX=0.5;entryY=0;entryDx=0;entryDy=0;" edge="1" parent="1" source="qZeAaRJFSxvFil0ufE4n-71" target="qZeAaRJFSxvFil0ufE4n-72">
          <mxGeometry relative="1" as="geometry" />
        </mxCell>
        <mxCell id="qZeAaRJFSxvFil0ufE4n-71" value="" style="ellipse;whiteSpace=wrap;html=1;aspect=fixed;" vertex="1" parent="1">
          <mxGeometry x="460" width="80" height="80" as="geometry" />
        </mxCell>
        <mxCell id="qZeAaRJFSxvFil0ufE4n-123" style="edgeStyle=orthogonalEdgeStyle;rounded=0;orthogonalLoop=1;jettySize=auto;html=1;exitX=0.5;exitY=1;exitDx=0;exitDy=0;entryX=0.5;entryY=0;entryDx=0;entryDy=0;" edge="1" parent="1" source="qZeAaRJFSxvFil0ufE4n-72" target="qZeAaRJFSxvFil0ufE4n-73">
          <mxGeometry relative="1" as="geometry" />
        </mxCell>
        <mxCell id="qZeAaRJFSxvFil0ufE4n-72" value="Draw Game Scene" style="ellipse;whiteSpace=wrap;html=1;" vertex="1" parent="1">
          <mxGeometry x="440" y="130" width="120" height="80" as="geometry" />
        </mxCell>
        <mxCell id="qZeAaRJFSxvFil0ufE4n-81" style="edgeStyle=orthogonalEdgeStyle;rounded=0;orthogonalLoop=1;jettySize=auto;html=1;exitX=0.5;exitY=1;exitDx=0;exitDy=0;entryX=0.5;entryY=0;entryDx=0;entryDy=0;" edge="1" parent="1" source="qZeAaRJFSxvFil0ufE4n-73" target="qZeAaRJFSxvFil0ufE4n-74">
          <mxGeometry relative="1" as="geometry" />
        </mxCell>
        <mxCell id="qZeAaRJFSxvFil0ufE4n-73" value="Loop over all entities" style="rounded=1;whiteSpace=wrap;html=1;" vertex="1" parent="1">
          <mxGeometry x="440" y="245" width="120" height="60" as="geometry" />
        </mxCell>
        <mxCell id="qZeAaRJFSxvFil0ufE4n-100" value="No" style="edgeStyle=orthogonalEdgeStyle;rounded=0;orthogonalLoop=1;jettySize=auto;html=1;exitX=1;exitY=0.5;exitDx=0;exitDy=0;" edge="1" parent="1" source="qZeAaRJFSxvFil0ufE4n-74" target="qZeAaRJFSxvFil0ufE4n-76">
          <mxGeometry relative="1" as="geometry" />
        </mxCell>
        <mxCell id="qZeAaRJFSxvFil0ufE4n-102" value="Yes" style="edgeStyle=orthogonalEdgeStyle;rounded=0;orthogonalLoop=1;jettySize=auto;html=1;exitX=0.5;exitY=1;exitDx=0;exitDy=0;entryX=0.5;entryY=0;entryDx=0;entryDy=0;" edge="1" parent="1" source="qZeAaRJFSxvFil0ufE4n-74" target="qZeAaRJFSxvFil0ufE4n-75">
          <mxGeometry relative="1" as="geometry" />
        </mxCell>
        <mxCell id="qZeAaRJFSxvFil0ufE4n-74" value="Are you the last player" style="rhombus;whiteSpace=wrap;html=1;" vertex="1" parent="1">
          <mxGeometry x="460" y="340" width="80" height="80" as="geometry" />
        </mxCell>
        <mxCell id="qZeAaRJFSxvFil0ufE4n-93" style="edgeStyle=orthogonalEdgeStyle;rounded=0;orthogonalLoop=1;jettySize=auto;html=1;exitX=0.5;exitY=1;exitDx=0;exitDy=0;entryX=0.5;entryY=0;entryDx=0;entryDy=0;" edge="1" parent="1" source="qZeAaRJFSxvFil0ufE4n-75" target="qZeAaRJFSxvFil0ufE4n-77">
          <mxGeometry relative="1" as="geometry" />
        </mxCell>
        <mxCell id="qZeAaRJFSxvFil0ufE4n-75" value="Activate crossing Minigame&amp;nbsp;" style="rounded=1;whiteSpace=wrap;html=1;" vertex="1" parent="1">
          <mxGeometry x="440" y="460" width="120" height="60" as="geometry" />
        </mxCell>
        <mxCell id="qZeAaRJFSxvFil0ufE4n-108" style="edgeStyle=orthogonalEdgeStyle;rounded=0;orthogonalLoop=1;jettySize=auto;html=1;exitX=0;exitY=0.5;exitDx=0;exitDy=0;entryX=1;entryY=0.5;entryDx=0;entryDy=0;" edge="1" parent="1" source="qZeAaRJFSxvFil0ufE4n-76" target="qZeAaRJFSxvFil0ufE4n-77">
          <mxGeometry relative="1" as="geometry" />
        </mxCell>
        <mxCell id="qZeAaRJFSxvFil0ufE4n-76" value="Watch active player" style="rounded=1;whiteSpace=wrap;html=1;" vertex="1" parent="1">
          <mxGeometry x="600" y="555" width="120" height="60" as="geometry" />
        </mxCell>
        <mxCell id="qZeAaRJFSxvFil0ufE4n-87" value="Yes" style="edgeStyle=orthogonalEdgeStyle;rounded=0;orthogonalLoop=1;jettySize=auto;html=1;exitX=0;exitY=0.5;exitDx=0;exitDy=0;entryX=1;entryY=0.5;entryDx=0;entryDy=0;" edge="1" parent="1" source="qZeAaRJFSxvFil0ufE4n-77" target="qZeAaRJFSxvFil0ufE4n-78">
          <mxGeometry relative="1" as="geometry">
            <mxPoint x="370" y="585" as="targetPoint" />
          </mxGeometry>
        </mxCell>
        <mxCell id="qZeAaRJFSxvFil0ufE4n-104" value="No" style="edgeStyle=orthogonalEdgeStyle;rounded=0;orthogonalLoop=1;jettySize=auto;html=1;exitX=0.5;exitY=1;exitDx=0;exitDy=0;entryX=0.5;entryY=0;entryDx=0;entryDy=0;" edge="1" parent="1" source="qZeAaRJFSxvFil0ufE4n-77" target="qZeAaRJFSxvFil0ufE4n-80">
          <mxGeometry relative="1" as="geometry" />
        </mxCell>
        <mxCell id="qZeAaRJFSxvFil0ufE4n-77" value="Are you on crosser side" style="rhombus;whiteSpace=wrap;html=1;" vertex="1" parent="1">
          <mxGeometry x="460" y="545" width="80" height="80" as="geometry" />
        </mxCell>
        <mxCell id="qZeAaRJFSxvFil0ufE4n-107" style="edgeStyle=orthogonalEdgeStyle;rounded=0;orthogonalLoop=1;jettySize=auto;html=1;exitX=0.5;exitY=1;exitDx=0;exitDy=0;entryX=0.5;entryY=0;entryDx=0;entryDy=0;" edge="1" parent="1" source="qZeAaRJFSxvFil0ufE4n-78" target="qZeAaRJFSxvFil0ufE4n-85">
          <mxGeometry relative="1" as="geometry" />
        </mxCell>
        <mxCell id="qZeAaRJFSxvFil0ufE4n-78" value="Dodge obstacles" style="rounded=1;whiteSpace=wrap;html=1;" vertex="1" parent="1">
          <mxGeometry x="60" y="555" width="120" height="60" as="geometry" />
        </mxCell>
        <mxCell id="qZeAaRJFSxvFil0ufE4n-106" style="edgeStyle=orthogonalEdgeStyle;rounded=0;orthogonalLoop=1;jettySize=auto;html=1;exitX=0.5;exitY=1;exitDx=0;exitDy=0;entryX=0.5;entryY=0;entryDx=0;entryDy=0;" edge="1" parent="1" source="qZeAaRJFSxvFil0ufE4n-80" target="qZeAaRJFSxvFil0ufE4n-97">
          <mxGeometry relative="1" as="geometry" />
        </mxCell>
        <mxCell id="qZeAaRJFSxvFil0ufE4n-80" value="Activate obstacles" style="rounded=1;whiteSpace=wrap;html=1;" vertex="1" parent="1">
          <mxGeometry x="440" y="660" width="120" height="60" as="geometry" />
        </mxCell>
        <mxCell id="qZeAaRJFSxvFil0ufE4n-92" value="No" style="edgeStyle=orthogonalEdgeStyle;rounded=0;orthogonalLoop=1;jettySize=auto;html=1;exitX=1;exitY=0.5;exitDx=0;exitDy=0;entryX=0;entryY=0.5;entryDx=0;entryDy=0;" edge="1" parent="1" source="qZeAaRJFSxvFil0ufE4n-85" target="qZeAaRJFSxvFil0ufE4n-91">
          <mxGeometry relative="1" as="geometry" />
        </mxCell>
        <mxCell id="qZeAaRJFSxvFil0ufE4n-101" style="edgeStyle=orthogonalEdgeStyle;rounded=0;orthogonalLoop=1;jettySize=auto;html=1;exitX=0.5;exitY=1;exitDx=0;exitDy=0;entryX=0.5;entryY=0;entryDx=0;entryDy=0;" edge="1" parent="1" source="qZeAaRJFSxvFil0ufE4n-85" target="qZeAaRJFSxvFil0ufE4n-86">
          <mxGeometry relative="1" as="geometry" />
        </mxCell>
        <mxCell id="qZeAaRJFSxvFil0ufE4n-85" value="Did you hit obstacle?" style="rhombus;whiteSpace=wrap;html=1;" vertex="1" parent="1">
          <mxGeometry x="80" y="640" width="80" height="80" as="geometry" />
        </mxCell>
        <mxCell id="qZeAaRJFSxvFil0ufE4n-115" style="edgeStyle=orthogonalEdgeStyle;rounded=0;orthogonalLoop=1;jettySize=auto;html=1;exitX=0.5;exitY=1;exitDx=0;exitDy=0;entryX=0;entryY=0.5;entryDx=0;entryDy=0;" edge="1" parent="1" source="qZeAaRJFSxvFil0ufE4n-86" target="qZeAaRJFSxvFil0ufE4n-114">
          <mxGeometry relative="1" as="geometry" />
        </mxCell>
        <mxCell id="qZeAaRJFSxvFil0ufE4n-86" value="Gain no points" style="rounded=1;whiteSpace=wrap;html=1;" vertex="1" parent="1">
          <mxGeometry x="60" y="765" width="120" height="60" as="geometry" />
        </mxCell>
        <mxCell id="qZeAaRJFSxvFil0ufE4n-111" style="edgeStyle=orthogonalEdgeStyle;rounded=0;orthogonalLoop=1;jettySize=auto;html=1;exitX=0.5;exitY=1;exitDx=0;exitDy=0;entryX=0.5;entryY=0;entryDx=0;entryDy=0;" edge="1" parent="1" source="qZeAaRJFSxvFil0ufE4n-91" target="qZeAaRJFSxvFil0ufE4n-94">
          <mxGeometry relative="1" as="geometry" />
        </mxCell>
        <mxCell id="qZeAaRJFSxvFil0ufE4n-91" value="Cross finish line" style="rounded=1;whiteSpace=wrap;html=1;" vertex="1" parent="1">
          <mxGeometry x="260" y="650" width="120" height="60" as="geometry" />
        </mxCell>
        <mxCell id="qZeAaRJFSxvFil0ufE4n-116" style="edgeStyle=orthogonalEdgeStyle;rounded=0;orthogonalLoop=1;jettySize=auto;html=1;exitX=0.5;exitY=1;exitDx=0;exitDy=0;entryX=0.5;entryY=0;entryDx=0;entryDy=0;" edge="1" parent="1" source="qZeAaRJFSxvFil0ufE4n-94" target="qZeAaRJFSxvFil0ufE4n-114">
          <mxGeometry relative="1" as="geometry" />
        </mxCell>
        <mxCell id="qZeAaRJFSxvFil0ufE4n-94" value="Gain points" style="rhombus;whiteSpace=wrap;html=1;" vertex="1" parent="1">
          <mxGeometry x="280" y="765" width="80" height="80" as="geometry" />
        </mxCell>
        <mxCell id="qZeAaRJFSxvFil0ufE4n-112" value="Yes" style="edgeStyle=orthogonalEdgeStyle;rounded=0;orthogonalLoop=1;jettySize=auto;html=1;entryX=1;entryY=0.5;entryDx=0;entryDy=0;" edge="1" parent="1" source="qZeAaRJFSxvFil0ufE4n-97" target="qZeAaRJFSxvFil0ufE4n-94">
          <mxGeometry relative="1" as="geometry" />
        </mxCell>
        <mxCell id="qZeAaRJFSxvFil0ufE4n-119" value="No" style="edgeStyle=orthogonalEdgeStyle;rounded=0;orthogonalLoop=1;jettySize=auto;html=1;exitX=0.5;exitY=1;exitDx=0;exitDy=0;entryX=0.5;entryY=0;entryDx=0;entryDy=0;" edge="1" parent="1" source="qZeAaRJFSxvFil0ufE4n-97" target="qZeAaRJFSxvFil0ufE4n-118">
          <mxGeometry relative="1" as="geometry" />
        </mxCell>
        <mxCell id="qZeAaRJFSxvFil0ufE4n-97" value="Did you hit a player" style="rhombus;whiteSpace=wrap;html=1;" vertex="1" parent="1">
          <mxGeometry x="460" y="765" width="80" height="80" as="geometry" />
        </mxCell>
        <mxCell id="qZeAaRJFSxvFil0ufE4n-110" value="" style="ellipse;whiteSpace=wrap;html=1;aspect=fixed;" vertex="1" parent="1">
          <mxGeometry x="280" y="1000" width="80" height="80" as="geometry" />
        </mxCell>
        <mxCell id="qZeAaRJFSxvFil0ufE4n-121" style="edgeStyle=orthogonalEdgeStyle;rounded=0;orthogonalLoop=1;jettySize=auto;html=1;exitX=0.5;exitY=1;exitDx=0;exitDy=0;entryX=0.5;entryY=0;entryDx=0;entryDy=0;" edge="1" parent="1" source="qZeAaRJFSxvFil0ufE4n-114" target="qZeAaRJFSxvFil0ufE4n-110">
          <mxGeometry relative="1" as="geometry" />
        </mxCell>
        <mxCell id="qZeAaRJFSxvFil0ufE4n-114" value="Adjust Points" style="rhombus;whiteSpace=wrap;html=1;" vertex="1" parent="1">
          <mxGeometry x="280" y="890" width="80" height="80" as="geometry" />
        </mxCell>
        <mxCell id="qZeAaRJFSxvFil0ufE4n-120" style="edgeStyle=orthogonalEdgeStyle;rounded=0;orthogonalLoop=1;jettySize=auto;html=1;exitX=0;exitY=0.5;exitDx=0;exitDy=0;entryX=1;entryY=0.5;entryDx=0;entryDy=0;" edge="1" parent="1" source="qZeAaRJFSxvFil0ufE4n-118" target="qZeAaRJFSxvFil0ufE4n-114">
          <mxGeometry relative="1" as="geometry" />
        </mxCell>
        <mxCell id="qZeAaRJFSxvFil0ufE4n-118" value="Gain no points" style="rounded=1;whiteSpace=wrap;html=1;" vertex="1" parent="1">
          <mxGeometry x="440" y="900" width="120" height="60" as="geometry" />
        </mxCell>
        <mxCell id="qZeAaRJFSxvFil0ufE4n-131" value="" style="ellipse;whiteSpace=wrap;html=1;aspect=fixed;" vertex="1" parent="1">
          <mxGeometry x="2100" y="875" width="80" height="80" as="geometry" />
        </mxCell>
        <mxCell id="qZeAaRJFSxvFil0ufE4n-139" style="edgeStyle=orthogonalEdgeStyle;rounded=0;orthogonalLoop=1;jettySize=auto;html=1;exitX=0.5;exitY=1;exitDx=0;exitDy=0;entryX=1;entryY=0.5;entryDx=0;entryDy=0;" edge="1" parent="1" source="qZeAaRJFSxvFil0ufE4n-136" target="qZeAaRJFSxvFil0ufE4n-67">
          <mxGeometry relative="1" as="geometry" />
        </mxCell>
        <mxCell id="qZeAaRJFSxvFil0ufE4n-136" value="Make no adjustment" style="rounded=1;whiteSpace=wrap;html=1;" vertex="1" parent="1">
          <mxGeometry x="2650" y="420" width="120" height="60" as="geometry" />
        </mxCell>
      </root>
    </mxGraphModel>
  </diagram>
</mxfile>
